<?xml version="1.0" encoding="UTF-8" standalone="no"?>
<!DOCTYPE svg PUBLIC "-//W3C//DTD SVG 1.1//EN" "http://www.w3.org/Graphics/SVG/1.1/DTD/svg11.dtd">
<svg width="100%" height="100%" viewBox="0 0 5100 1150" version="1.1" xmlns="http://www.w3.org/2000/svg" xmlns:xlink="http://www.w3.org/1999/xlink" xml:space="preserve" xmlns:serif="http://www.serif.com/" style="fill-rule:evenodd;clip-rule:evenodd;stroke-linejoin:round;stroke-miterlimit:2;">
    <g transform="matrix(1100.27,0,0,1100.27,1796.99,867.309)">
        <path d="M-0.032,-0.484L-0.032,-0.722L0.143,-0.722L0.206,-0.32L0.268,-0.32L0.38,-0.46L0.332,-0.466L0.332,-0.528L0.553,-0.528L0.489,-0.454L0.35,-0.288L0.519,-0.073L0.579,0L0.36,0L0.36,-0.062L0.409,-0.068L0.269,-0.244L0.206,-0.244L0.072,-0.068L0.118,-0.062L0.118,0L-0.087,0L0.122,-0.288L0.061,-0.646L0.03,-0.646L0.013,-0.478L-0.032,-0.484Z" style="fill:rgb(36,184,160);fill-rule:nonzero;"/>
    </g>
    <g transform="matrix(2.72174,0,1.23957e-16,1.30039,317.397,-107.809)">
        <path d="M740.303,140.413C735.834,140.358 715.819,174.22 714.265,190.96C712.71,207.7 728.46,225.708 730.976,240.853C733.217,254.337 724.895,281.829 729.363,281.829C733.832,281.829 755.834,255.943 757.786,240.853C759.738,225.763 743.988,208.029 741.074,191.289C738.166,174.58 744.771,140.468 740.303,140.413Z" style="fill:rgb(36,184,160);"/>
    </g>
    <g transform="matrix(45.8686,0,0,45.8686,-33143,-20890.3)">
        <g transform="matrix(23.5063,0,0,23.5063,724.091,474.105)">
            <path d="M0.024,-0.062L0.104,-0.075L0.104,-0.453L0.024,-0.466L0.024,-0.528L0.19,-0.528L0.197,-0.459C0.214,-0.485 0.236,-0.504 0.262,-0.518C0.289,-0.531 0.32,-0.538 0.355,-0.538C0.39,-0.538 0.42,-0.53 0.446,-0.514C0.471,-0.497 0.49,-0.473 0.502,-0.44C0.519,-0.47 0.541,-0.494 0.568,-0.512C0.596,-0.529 0.628,-0.538 0.664,-0.538C0.718,-0.538 0.761,-0.52 0.792,-0.483C0.823,-0.446 0.839,-0.39 0.839,-0.316L0.839,-0.075L0.918,-0.062L0.918,0L0.663,0L0.663,-0.062L0.742,-0.075L0.742,-0.317C0.742,-0.369 0.733,-0.406 0.715,-0.427C0.697,-0.449 0.671,-0.46 0.636,-0.46C0.602,-0.46 0.575,-0.448 0.555,-0.425C0.535,-0.401 0.523,-0.371 0.52,-0.335L0.52,-0.075L0.599,-0.062L0.599,0L0.344,0L0.344,-0.062L0.423,-0.075L0.423,-0.317C0.423,-0.366 0.414,-0.403 0.396,-0.426C0.377,-0.448 0.351,-0.46 0.316,-0.46C0.287,-0.46 0.263,-0.454 0.244,-0.442C0.225,-0.43 0.21,-0.413 0.2,-0.391L0.2,-0.075L0.28,-0.062L0.28,0L0.024,0L0.024,-0.062Z" style="fill:rgb(66,64,64);fill-rule:nonzero;"/>
        </g>
        <g transform="matrix(23.5063,0,0,23.5063,746.186,474.105)">
            <path d="M0.044,-0.269C0.044,-0.347 0.065,-0.412 0.107,-0.462C0.15,-0.513 0.207,-0.538 0.28,-0.538C0.353,-0.538 0.41,-0.513 0.453,-0.462C0.495,-0.412 0.517,-0.347 0.517,-0.269L0.517,-0.258C0.517,-0.18 0.495,-0.115 0.453,-0.065C0.411,-0.015 0.353,0.01 0.281,0.01C0.208,0.01 0.15,-0.015 0.107,-0.065C0.065,-0.115 0.044,-0.18 0.044,-0.258L0.044,-0.269ZM0.14,-0.258C0.14,-0.202 0.152,-0.156 0.176,-0.12C0.199,-0.083 0.234,-0.065 0.281,-0.065C0.326,-0.065 0.361,-0.083 0.385,-0.12C0.409,-0.156 0.42,-0.202 0.42,-0.258L0.42,-0.269C0.42,-0.324 0.409,-0.37 0.385,-0.407C0.361,-0.444 0.326,-0.462 0.28,-0.462C0.234,-0.462 0.199,-0.444 0.175,-0.407C0.152,-0.37 0.14,-0.324 0.14,-0.269L0.14,-0.258Z" style="fill:rgb(66,64,64);fill-rule:nonzero;"/>
        </g>
    </g>
    <g transform="matrix(0.979525,0,0,0.979525,-743.306,279.754)">
        <g transform="matrix(1100.74,0,0,1100.74,3236.09,593.536)">
            <path d="M0.432,0C0.429,-0.007 0.426,-0.015 0.424,-0.026C0.421,-0.036 0.42,-0.047 0.419,-0.058C0.41,-0.049 0.4,-0.04 0.388,-0.032C0.377,-0.024 0.365,-0.016 0.351,-0.01C0.338,-0.004 0.323,0.001 0.308,0.004C0.293,0.008 0.277,0.01 0.259,0.01C0.231,0.01 0.206,0.006 0.183,-0.002C0.161,-0.011 0.142,-0.022 0.126,-0.035C0.11,-0.049 0.098,-0.066 0.089,-0.085C0.08,-0.104 0.076,-0.124 0.076,-0.146C0.076,-0.175 0.082,-0.201 0.094,-0.223C0.105,-0.244 0.121,-0.263 0.143,-0.277C0.164,-0.292 0.189,-0.302 0.219,-0.31C0.249,-0.317 0.282,-0.32 0.319,-0.32L0.417,-0.32L0.417,-0.362C0.417,-0.378 0.415,-0.392 0.409,-0.405C0.403,-0.417 0.395,-0.428 0.384,-0.437C0.373,-0.446 0.36,-0.453 0.344,-0.458C0.329,-0.463 0.312,-0.465 0.292,-0.465C0.275,-0.465 0.259,-0.463 0.244,-0.458C0.23,-0.454 0.218,-0.448 0.208,-0.44C0.199,-0.433 0.191,-0.424 0.186,-0.414C0.18,-0.404 0.178,-0.393 0.178,-0.382L0.087,-0.382C0.087,-0.401 0.092,-0.42 0.102,-0.438C0.111,-0.457 0.125,-0.474 0.143,-0.489C0.161,-0.503 0.183,-0.515 0.209,-0.524C0.235,-0.534 0.264,-0.538 0.297,-0.538C0.327,-0.538 0.355,-0.534 0.381,-0.527C0.407,-0.52 0.429,-0.509 0.448,-0.494C0.466,-0.479 0.481,-0.461 0.492,-0.438C0.502,-0.416 0.508,-0.39 0.508,-0.361L0.508,-0.115C0.508,-0.098 0.509,-0.079 0.513,-0.059C0.516,-0.04 0.521,-0.022 0.526,-0.008L0.526,0L0.432,0ZM0.272,-0.069C0.29,-0.069 0.306,-0.071 0.322,-0.076C0.337,-0.08 0.351,-0.086 0.364,-0.094C0.376,-0.101 0.387,-0.11 0.396,-0.119C0.405,-0.129 0.412,-0.139 0.417,-0.149L0.417,-0.256L0.333,-0.256C0.281,-0.256 0.24,-0.249 0.21,-0.233C0.181,-0.217 0.167,-0.193 0.167,-0.159C0.167,-0.146 0.169,-0.134 0.173,-0.123C0.177,-0.112 0.184,-0.102 0.193,-0.094C0.202,-0.087 0.213,-0.08 0.226,-0.076C0.239,-0.071 0.255,-0.069 0.272,-0.069Z" style="fill:rgb(66,64,64);fill-rule:nonzero;"/>
        </g>
        <g transform="matrix(1100.74,0,0,1100.74,3896.64,593.536)">
            <path d="M0.531,-0.258C0.531,-0.221 0.526,-0.185 0.517,-0.153C0.508,-0.12 0.495,-0.091 0.477,-0.067C0.459,-0.043 0.438,-0.024 0.412,-0.011C0.386,0.003 0.356,0.01 0.323,0.01C0.291,0.01 0.263,0.005 0.238,-0.006C0.213,-0.016 0.192,-0.031 0.175,-0.051L0.175,0.203L0.084,0.203L0.084,-0.528L0.167,-0.528L0.171,-0.471C0.189,-0.493 0.21,-0.509 0.235,-0.521C0.26,-0.532 0.289,-0.538 0.322,-0.538C0.356,-0.538 0.386,-0.531 0.412,-0.518C0.438,-0.505 0.459,-0.486 0.477,-0.462C0.495,-0.439 0.508,-0.41 0.517,-0.377C0.526,-0.344 0.531,-0.308 0.531,-0.269L0.531,-0.258ZM0.44,-0.269C0.44,-0.294 0.438,-0.319 0.432,-0.342C0.426,-0.365 0.417,-0.386 0.406,-0.404C0.394,-0.421 0.379,-0.435 0.36,-0.446C0.342,-0.456 0.32,-0.461 0.295,-0.461C0.266,-0.461 0.242,-0.455 0.222,-0.441C0.202,-0.428 0.187,-0.41 0.175,-0.389L0.175,-0.135C0.187,-0.114 0.202,-0.097 0.222,-0.084C0.241,-0.071 0.266,-0.064 0.296,-0.064C0.321,-0.064 0.343,-0.069 0.361,-0.08C0.379,-0.09 0.394,-0.105 0.406,-0.123C0.417,-0.14 0.426,-0.161 0.432,-0.185C0.438,-0.208 0.44,-0.233 0.44,-0.258L0.44,-0.269Z" style="fill:rgb(66,64,64);fill-rule:nonzero;"/>
        </g>
        <g transform="matrix(1100.74,0,0,1100.74,4557.19,593.536)">
            <path d="M0.06,-0.269C0.06,-0.307 0.065,-0.343 0.076,-0.375C0.087,-0.408 0.103,-0.436 0.124,-0.46C0.144,-0.485 0.17,-0.503 0.199,-0.517C0.229,-0.531 0.262,-0.538 0.299,-0.538C0.337,-0.538 0.37,-0.531 0.4,-0.517C0.43,-0.503 0.455,-0.485 0.476,-0.46C0.497,-0.436 0.512,-0.408 0.523,-0.375C0.535,-0.343 0.54,-0.307 0.54,-0.269L0.54,-0.258C0.54,-0.22 0.535,-0.185 0.523,-0.152C0.512,-0.12 0.497,-0.091 0.476,-0.067C0.455,-0.043 0.43,-0.024 0.4,-0.011C0.371,0.003 0.337,0.01 0.3,0.01C0.263,0.01 0.229,0.003 0.199,-0.011C0.17,-0.024 0.144,-0.043 0.124,-0.067C0.103,-0.091 0.087,-0.12 0.076,-0.152C0.065,-0.185 0.06,-0.22 0.06,-0.258L0.06,-0.269ZM0.15,-0.258C0.15,-0.232 0.153,-0.207 0.159,-0.184C0.165,-0.16 0.175,-0.139 0.187,-0.122C0.2,-0.104 0.215,-0.09 0.234,-0.079C0.253,-0.069 0.275,-0.063 0.3,-0.063C0.325,-0.063 0.347,-0.069 0.365,-0.079C0.384,-0.09 0.4,-0.104 0.412,-0.122C0.425,-0.139 0.434,-0.16 0.44,-0.184C0.447,-0.207 0.45,-0.232 0.45,-0.258L0.45,-0.269C0.45,-0.295 0.447,-0.319 0.44,-0.343C0.434,-0.367 0.424,-0.387 0.412,-0.405C0.399,-0.423 0.384,-0.437 0.365,-0.448C0.346,-0.459 0.324,-0.464 0.299,-0.464C0.274,-0.464 0.252,-0.459 0.234,-0.448C0.215,-0.437 0.2,-0.423 0.187,-0.405C0.175,-0.387 0.165,-0.367 0.159,-0.343C0.153,-0.319 0.15,-0.295 0.15,-0.269L0.15,-0.258Z" style="fill:rgb(66,64,64);fill-rule:nonzero;"/>
        </g>
        <g transform="matrix(1100.74,0,0,1100.74,5217.74,593.536)">
            <path d="M0.299,-0.656L0.299,-0.528L0.5,-0.528L0.5,-0.458L0.299,-0.458L0.299,-0.171C0.299,-0.151 0.301,-0.134 0.307,-0.121C0.312,-0.107 0.319,-0.097 0.328,-0.089C0.337,-0.081 0.348,-0.075 0.36,-0.072C0.372,-0.069 0.384,-0.067 0.397,-0.067C0.407,-0.067 0.417,-0.067 0.428,-0.069C0.438,-0.07 0.448,-0.071 0.458,-0.073C0.468,-0.074 0.477,-0.076 0.486,-0.078C0.495,-0.08 0.502,-0.081 0.507,-0.083L0.52,-0.019C0.513,-0.014 0.503,-0.01 0.493,-0.007C0.482,-0.003 0.47,0 0.458,0.002C0.445,0.005 0.431,0.007 0.417,0.008C0.403,0.009 0.389,0.01 0.375,0.01C0.352,0.01 0.33,0.006 0.309,0C0.289,-0.007 0.271,-0.017 0.256,-0.032C0.241,-0.046 0.23,-0.065 0.221,-0.088C0.212,-0.111 0.208,-0.139 0.208,-0.171L0.208,-0.458L0.069,-0.458L0.069,-0.528L0.208,-0.528L0.208,-0.656L0.299,-0.656Z" style="fill:rgb(66,64,64);fill-rule:nonzero;"/>
        </g>
    </g>
</svg>
