<?xml version="1.0" encoding="UTF-8" standalone="no"?>
<!DOCTYPE svg PUBLIC "-//W3C//DTD SVG 1.1//EN" "http://www.w3.org/Graphics/SVG/1.1/DTD/svg11.dtd">
<svg width="100%" height="100%" viewBox="0 0 5100 1150" version="1.1" xmlns="http://www.w3.org/2000/svg" xmlns:xlink="http://www.w3.org/1999/xlink" xml:space="preserve" xmlns:serif="http://www.serif.com/" style="fill-rule:evenodd;clip-rule:evenodd;stroke-linejoin:round;stroke-miterlimit:2;">
    <g transform="matrix(1100.27,0,0,1100.27,1796.99,867.309)">
        <path d="M-0.032,-0.484L-0.032,-0.722L0.143,-0.722L0.206,-0.32L0.268,-0.32L0.38,-0.46L0.332,-0.466L0.332,-0.528L0.553,-0.528L0.489,-0.454L0.35,-0.288L0.519,-0.073L0.579,0L0.36,0L0.36,-0.062L0.409,-0.068L0.269,-0.244L0.206,-0.244L0.072,-0.068L0.118,-0.062L0.118,0L-0.087,0L0.122,-0.288L0.061,-0.646L0.03,-0.646L0.013,-0.478L-0.032,-0.484Z" style="fill:rgb(36,184,160);fill-rule:nonzero;"/>
    </g>
    <g transform="matrix(2.72174,0,1.23957e-16,1.30039,317.397,-107.809)">
        <path d="M740.303,140.413C735.834,140.358 715.819,174.22 714.265,190.96C712.71,207.7 728.46,225.708 730.976,240.853C733.217,254.337 724.895,281.829 729.363,281.829C733.832,281.829 755.834,255.943 757.786,240.853C759.738,225.763 743.988,208.029 741.074,191.289C738.166,174.58 744.771,140.468 740.303,140.413Z" style="fill:rgb(36,184,160);"/>
    </g>
    <g transform="matrix(45.8686,0,0,45.8686,-33143,-20890.3)">
        <text x="724.091px" y="474.105px" style="font-family:'RobotoSlab-Regular', 'Roboto Slab';font-size:23.506px;fill:rgb(66,64,64);">m<tspan x="746.186px " y="474.105px ">o</tspan></text>
    </g>
    <g transform="matrix(0.979525,0,0,0.979525,-743.306,279.754)">
        <text x="3236.09px" y="593.536px" style="font-family:'RobotoMono-Regular', 'Roboto Mono';font-size:1100.74px;fill:rgb(66,64,64);">apot</text>
    </g>
</svg>
